<?xml version="1.0" encoding="UTF-8" standalone="no"?>
<!DOCTYPE svg PUBLIC "-//W3C//DTD SVG 1.1//EN" "http://www.w3.org/Graphics/SVG/1.1/DTD/svg11.dtd">
<svg xmlns="http://www.w3.org/2000/svg" version="1.1" viewBox="0 0 132 40">
<g stroke-width="2.00" fill="none" stroke-linecap="butt">
<path stroke="#40d6e1" vector-effect="non-scaling-stroke" d="
  M 32.09 17.24
  Q 29.50 15.02 26.56 13.47
  Q 25.12 12.72 24.04 13.50"
/>
<path stroke="#4dd2db" vector-effect="non-scaling-stroke" d="
  M 23.71 10.25
  C 24.07 6.10 21.24 4.16 17.89 1.20
  A 1.03 1.02 65.1 0 0 17.22 0.95
  L 14.50 0.96"
/>
<path stroke="#82b6e0" vector-effect="non-scaling-stroke" d="
  M 10.54 16.00
  Q 5.59 14.99 0.52 15.75"
/>
<path stroke="#ac9ee8" vector-effect="non-scaling-stroke" d="
  M 26.50 27.79
  Q 27.55 32.21 27.31 36.84
  A 1.00 1.00 0.0 0 1 26.31 37.79
  Q 24.51 37.78 22.72 37.95
  C 16.06 38.61 10.81 32.39 9.23 26.54
  A 1.00 1.00 0.0 0 0 8.13 25.81
  L 1.29 26.75"
/>
</g>
<path fill="#32dfdb" d="
  M 19.56 0.00
  L 20.81 0.00
  Q 32.22 1.05 37.59 10.78
  A 1.01 1.00 53.4 0 1 37.42 11.98
  L 32.09 17.24
  Q 29.50 15.02 26.56 13.47
  Q 25.12 12.72 24.04 13.50
  L 23.71 10.25
  C 24.07 6.10 21.24 4.16 17.89 1.20
  A 1.03 1.02 65.1 0 0 17.22 0.95
  L 14.50 0.96
  L 19.56 0.00
  Z"
/>
<path fill="#67c5db" d="
  M 23.71 10.25
  Q 14.69 8.06 10.54 16.00
  Q 5.59 14.99 0.52 15.75
  Q 3.35 4.37 14.50 0.96
  L 17.22 0.95
  A 1.03 1.02 65.1 0 1 17.89 1.20
  C 21.24 4.16 24.07 6.10 23.71 10.25
  Z"
/>
<path fill="#ffffff" d="
  M 54.78 22.22
  L 54.89 26.23
  A 0.32 0.32 0.0 0 0 55.21 26.54
  L 65.18 26.41
  A 0.32 0.32 0.0 0 1 65.50 26.73
  L 65.50 29.68
  A 0.32 0.32 0.0 0 1 65.18 30.00
  L 50.76 30.00
  A 0.32 0.32 0.0 0 1 50.44 29.68
  L 50.48 10.85
  A 0.32 0.32 0.0 0 1 50.80 10.53
  L 64.66 10.43
  A 0.32 0.32 0.0 0 1 64.98 10.73
  L 65.15 13.66
  A 0.32 0.32 0.0 0 1 64.83 14.00
  L 55.12 14.00
  A 0.32 0.32 0.0 0 0 54.80 14.33
  L 54.86 17.94
  A 0.32 0.32 0.0 0 0 55.18 18.25
  L 63.67 18.25
  A 0.32 0.32 0.0 0 1 63.99 18.60
  L 63.70 21.51
  A 0.32 0.32 0.0 0 1 63.38 21.79
  L 55.10 21.90
  A 0.32 0.32 0.0 0 0 54.78 22.22
  Z"
/>
<path fill="#4dcde6" d="
  M 32.09 17.24
  L 25.40 24.15
  Q 24.02 25.58 24.02 23.59
  L 24.04 13.50
  Q 25.12 12.72 26.56 13.47
  Q 29.50 15.02 32.09 17.24
  Z"
/>
<path fill="#ffffff" d="
  M 74.38 15.65
  Q 75.03 15.19 76.00 14.99
  C 85.12 13.11 84.60 22.00 84.18 29.06
  A 0.99 0.99 0.0 0 1 83.19 30.00
  L 80.81 30.00
  A 1.00 1.00 0.0 0 1 79.81 29.02
  C 79.77 25.89 81.37 14.36 73.67 19.78
  A 1.01 1.00 72.4 0 0 73.25 20.60
  L 73.25 29.00
  A 1.00 1.00 0.0 0 1 72.25 30.00
  L 69.75 30.00
  A 1.00 1.00 0.0 0 1 68.75 29.00
  L 68.75 15.80
  A 1.00 1.00 0.0 0 1 69.57 14.82
  Q 71.68 14.43 73.17 15.62
  A 1.01 1.00 -43.3 0 0 74.38 15.65
  Z"
/>
<path fill="#ffffff" d="
  M 98.86 14.83
  L 102.33 14.88
  A 0.34 0.34 0.0 0 1 102.64 15.35
  L 96.66 29.67
  A 0.34 0.34 0.0 0 1 96.36 29.88
  L 92.25 30.06
  A 0.34 0.34 0.0 0 1 91.92 29.85
  L 85.79 15.28
  A 0.34 0.34 0.0 0 1 86.12 14.81
  L 89.97 15.00
  A 0.34 0.34 0.0 0 1 90.27 15.21
  L 94.05 24.55
  A 0.34 0.34 0.0 0 0 94.68 24.55
  L 98.54 15.05
  A 0.34 0.34 0.0 0 1 98.86 14.83
  Z"
/>
<path fill="#ffffff" d="
  M 108.61 25.49
  Q 111.25 27.88 114.89 25.80
  A 1.01 1.00 -36.8 0 1 116.11 25.97
  L 117.13 27.04
  A 1.01 1.00 -39.9 0 1 116.99 28.55
  C 112.06 32.09 103.90 29.91 103.22 23.37
  C 102.11 12.79 118.60 11.14 118.96 22.72
  A 1.00 1.00 0.0 0 1 117.96 23.75
  L 109.28 23.75
  Q 106.68 23.75 108.61 25.49
  Z
  M 108.93 21.08
  L 114.11 21.24
  A 0.65 0.65 0.0 0 0 114.71 20.87
  Q 114.95 20.35 114.57 19.95
  Q 110.76 15.98 108.16 19.48
  Q 107.01 21.02 108.93 21.08
  Z"
/>
<path fill="#ffffff" d="
  M 127.03 15.92
  L 129.88 14.80
  A 1.00 1.00 0.0 0 1 131.25 15.73
  L 131.25 17.73
  A 1.00 1.00 0.0 0 1 130.24 18.73
  C 124.91 18.65 126.25 25.76 126.24 29.01
  A 1.00 1.00 0.0 0 1 125.24 30.00
  L 122.88 30.00
  A 1.00 1.00 0.0 0 1 121.88 28.99
  L 122.02 15.80
  A 1.01 1.00 -6.8 0 1 122.78 14.84
  Q 124.78 14.35 125.91 15.65
  A 1.01 1.00 58.2 0 0 127.03 15.92
  Z"
/>
<path fill="#9ca7e5" d="
  M 10.54 16.00
  C 7.15 26.31 17.82 34.38 26.50 27.79
  Q 27.55 32.21 27.31 36.84
  A 1.00 1.00 0.0 0 1 26.31 37.79
  Q 24.51 37.78 22.72 37.95
  C 16.06 38.61 10.81 32.39 9.23 26.54
  A 1.00 1.00 0.0 0 0 8.13 25.81
  L 1.29 26.75
  L 0.00 20.44
  L 0.00 18.94
  L 0.52 15.75
  Q 5.59 14.99 10.54 16.00
  Z"
/>
<path fill="#bb95eb" d="
  M 1.29 26.75
  L 8.13 25.81
  A 1.00 1.00 0.0 0 1 9.23 26.54
  C 10.81 32.39 16.06 38.61 22.72 37.95
  Q 24.51 37.78 26.31 37.79
  A 1.00 1.00 0.0 0 0 27.31 36.84
  Q 27.55 32.21 26.50 27.79
  L 37.96 16.39
  Q 39.49 14.87 39.66 17.01
  Q 40.52 27.41 34.30 33.74
  C 23.71 44.51 7.60 40.70 1.29 26.75
  Z"
/>
</svg>
